<?xml version="1.0" ?><svg enable-background="new 0 0 515.91 728.5" height="512" id="Layer_1" version="1.1" viewBox="0 0 512.00003 512" width="512" xml:space="preserve" xmlns="http://www.w3.org/2000/svg" xmlns:cc="http://creativecommons.org/ns#" xmlns:dc="http://purl.org/dc/elements/1.1/" xmlns:inkscape="http://www.inkscape.org/namespaces/inkscape" xmlns:rdf="http://www.w3.org/1999/02/22-rdf-syntax-ns#" xmlns:sodipodi="http://sodipodi.sourceforge.net/DTD/sodipodi-0.dtd" xmlns:svg="http://www.w3.org/2000/svg"><defs id="defs7"/><path d="m 256.00001,5.9996579 c -101.7237,0.05 -100.4624,88.8560091 -100.4624,88.8560091 l -0.6717,47.247003 c -8.3177,-0.108 -10.3,8.121 -10.3,24.555 0,24.63301 15.0813,50.39101 28.7355,63.70301 4.6283,19.365 13.4435,36.451 25.3394,49.447 -0.4151,0.258 -0.8535,0.493 -1.2686,0.747 -44.5894,32.725 -114.1538,40.643 -146.06621,81.28101 -23.8857,30.802 -33.9309,60.929 -34.1467,91.281 -0.011,1.048 -0.016,2.088 0,3.136 0.031,2.094 0.101,4.172 0.2239,6.269 0.8257,14.171 16.9045,18.759 28.8102,21.644 72.66741,12.923 143.21381,21.923 209.80661,21.834 66.59271,0.08 137.13921,-8.911 209.80662,-21.834 11.9057,-2.885 27.9845,-7.473 28.8102,-21.644 0.1227,-2.097 0.1929,-4.175 0.2239,-6.269 0.016,-1.048 0.011,-2.088 0,-3.136 -0.2158,-30.352 -10.261,-60.479 -34.1467,-91.281 -31.91241,-40.63801 -101.47681,-48.55601 -146.06621,-81.28101 -0.4151,-0.254 -0.8535,-0.489 -1.2686,-0.747 11.8959,-12.996 20.7111,-30.082 25.3394,-49.447 13.6541,-13.312 28.7355,-39.07 28.7355,-63.70301 0,-16.434 -1.9823,-24.663 -10.3,-24.555 l -0.6717,-47.247003 c 0,0 1.2613,-88.8080091 -100.46241,-88.8560091 z" id="path9353-1" style="fill:#333333;fill-opacity:1;stroke:none"/></svg>