<?xml version="1.0" ?><!DOCTYPE svg  PUBLIC '-//W3C//DTD SVG 1.1//EN'  'http://www.w3.org/Graphics/SVG/1.1/DTD/svg11.dtd'><svg enable-background="new 0 0 100 52" id="Layer_1" version="1.1" viewBox="0 0 100 52" xml:space="preserve" xmlns="http://www.w3.org/2000/svg" xmlns:xlink="http://www.w3.org/1999/xlink"><path d="M3.1,35.2c0,0,4.2-2.8,4.2,4.8H3.1C3.1,40.1,1.9,38.9,3.1,35.2z" fill="#343F4C"/><path d="M94.4,39.9h-2c-1.7,0-3-1.4-3-3V36c0-1.6,1.3-3,3-3h2c1.7,0,3,1.4,3,3v0.8C97.4,38.5,96,39.9,94.4,39.9z" fill="#343F4C"/><path d="M74.1,18.2c0,0-5.3-16.7-27.2-16.7c-21.8,0-27,17.7-27,17.7S3.1,20.1,3.1,31.7c0,0,6.8-2.3,6.8,8.3h8.8  c1.1-4.8,5.4-8.3,10.5-8.3s9.4,3.6,10.5,8.3h19.1c1.1-4.8,5.4-8.3,10.5-8.3c5.1,0,9.4,3.6,10.5,8.3h2.4h4.2h0.3v-5.9  c0-1.7,1.4-3,3-3h7.5v-1.6C97.4,29.6,99.2,18.2,74.1,18.2z M25.5,19.1c0,0,1.4-11.1,17.7-13l0,13H25.5z M50.9,26h-2.5  c-0.6,0-1.1-0.5-1.1-1.1s0.5-1.1,1.1-1.1h2.5c0.6,0,1.1,0.5,1.1,1.1S51.5,26,50.9,26z M47.4,19.1V5.8c15.9-2,22.1,13.3,22.1,13.3  H47.4z" fill="#343F4C"/><path d="M29.2,34.8c-4.3,0-7.8,3.5-7.8,7.8c0,4.3,3.5,7.8,7.8,7.8c4.3,0,7.8-3.5,7.8-7.8  C37.1,38.3,33.6,34.8,29.2,34.8z M29.2,46.9c-2.4,0-4.3-1.9-4.3-4.3c0-2.4,1.9-4.3,4.3-4.3c2.4,0,4.3,1.9,4.3,4.3  C33.5,45,31.6,46.9,29.2,46.9z" fill="#343F4C"/><path d="M69.6,34.8c-4.3,0-7.8,3.5-7.8,7.8c0,4.3,3.5,7.8,7.8,7.8c4.3,0,7.8-3.5,7.8-7.8  C77.5,38.3,73.9,34.8,69.6,34.8z M69.6,46.9c-2.4,0-4.3-1.9-4.3-4.3c0-2.4,1.9-4.3,4.3-4.3c2.4,0,4.3,1.9,4.3,4.3  C73.9,45,72,46.9,69.6,46.9z" fill="#343F4C"/></svg>